<svg width="960" height="480" viewBox="0 0 960 480" fill="none" xmlns="http://www.w3.org/2000/svg">
<g clip-path="url(#clip0)">
<rect width="960" height="480" fill="#B20000"/>
<mask id="mask0" mask-type="alpha" maskUnits="userSpaceOnUse" x="-30" y="0" width="500" height="480">
<rect x="-30" width="500" height="480" fill="white"/>
</mask>
<g mask="url(#mask0)">
<circle opacity="0.2" cx="170" cy="240" r="300" fill="url(#paint0_linear)"/>
<circle opacity="0.4" cx="170" cy="240" r="250" fill="url(#paint1_linear)"/>
<circle cx="171" cy="241" r="200" fill="url(#paint2_linear)"/>
</g>
<path d="M684.941 183.5H669.91L667.285 192H655.566L672.254 146.5H682.566L699.379 192H687.598L684.941 183.5ZM672.535 175.031H682.316L677.41 159.25L672.535 175.031ZM717.495 184.5C718.974 184.5 720.12 184.104 720.933 183.312C721.745 182.5 722.141 181.375 722.12 179.938H731.995C731.995 183.646 730.662 186.688 727.995 189.062C725.349 191.438 721.933 192.625 717.745 192.625C712.828 192.625 708.953 191.083 706.12 188C703.287 184.917 701.87 180.646 701.87 175.188V174.75C701.87 171.333 702.495 168.323 703.745 165.719C705.016 163.094 706.839 161.083 709.214 159.688C711.589 158.271 714.401 157.562 717.651 157.562C722.047 157.562 725.537 158.781 728.12 161.219C730.703 163.656 731.995 166.958 731.995 171.125H722.12C722.12 169.375 721.693 168.031 720.839 167.094C719.985 166.156 718.839 165.688 717.401 165.688C714.672 165.688 713.078 167.427 712.62 170.906C712.474 172.01 712.401 173.531 712.401 175.469C712.401 178.865 712.808 181.219 713.62 182.531C714.433 183.844 715.724 184.5 717.495 184.5ZM722.058 191.688L721.745 193.594C724.87 194.177 726.433 195.979 726.433 199C726.433 201.417 725.401 203.312 723.339 204.688C721.276 206.062 718.412 206.75 714.745 206.75L714.526 200.938C716.36 200.938 717.276 200.135 717.276 198.531C717.276 197.74 716.943 197.188 716.276 196.875C715.63 196.562 714.568 196.354 713.089 196.25L714.058 191.688H722.058ZM736.08 174.781C736.08 171.406 736.736 168.406 738.049 165.781C739.361 163.135 741.247 161.104 743.705 159.688C746.163 158.271 749.049 157.562 752.361 157.562C757.424 157.562 761.413 159.135 764.33 162.281C767.247 165.406 768.705 169.667 768.705 175.062V175.438C768.705 180.708 767.236 184.896 764.299 188C761.382 191.083 757.424 192.625 752.424 192.625C747.611 192.625 743.747 191.188 740.83 188.312C737.913 185.417 736.34 181.5 736.111 176.562L736.08 174.781ZM746.611 175.438C746.611 178.562 747.101 180.854 748.08 182.312C749.059 183.771 750.507 184.5 752.424 184.5C756.174 184.5 758.09 181.615 758.174 175.844V174.781C758.174 168.719 756.236 165.688 752.361 165.688C748.84 165.688 746.934 168.302 746.643 173.531L746.611 175.438ZM764.518 144.25C764.518 146.625 763.82 148.646 762.424 150.312C761.049 151.958 759.34 152.781 757.299 152.781C755.924 152.781 754.393 152.344 752.705 151.469C751.018 150.594 749.653 150.156 748.611 150.156C747.945 150.156 747.372 150.385 746.893 150.844C746.434 151.302 746.205 152.01 746.205 152.969L740.361 152.656C740.361 150.344 741.049 148.344 742.424 146.656C743.82 144.969 745.528 144.125 747.549 144.125C748.59 144.125 749.955 144.51 751.643 145.281C753.33 146.031 754.393 146.458 754.83 146.562C755.288 146.667 755.768 146.719 756.268 146.719C756.934 146.719 757.507 146.49 757.986 146.031C758.465 145.573 758.705 144.865 758.705 143.906L764.518 144.25ZM790.665 192.625C785.478 192.625 781.28 191.083 778.071 188C774.863 184.896 773.259 180.865 773.259 175.906V175.031C773.259 171.573 773.894 168.521 775.165 165.875C776.457 163.229 778.332 161.188 780.79 159.75C783.248 158.292 786.165 157.562 789.54 157.562C794.29 157.562 798.04 159.042 800.79 162C803.54 164.938 804.915 169.042 804.915 174.312V178.406H783.978C784.353 180.302 785.175 181.792 786.446 182.875C787.717 183.958 789.363 184.5 791.384 184.5C794.717 184.5 797.321 183.333 799.196 181L804.009 186.688C802.696 188.5 800.832 189.948 798.415 191.031C796.019 192.094 793.436 192.625 790.665 192.625ZM789.478 165.688C786.394 165.688 784.561 167.729 783.978 171.812H794.603V171C794.644 169.312 794.217 168.01 793.321 167.094C792.425 166.156 791.144 165.688 789.478 165.688ZM827.844 182.5C827.844 181.604 827.375 180.885 826.438 180.344C825.5 179.802 823.719 179.24 821.094 178.656C818.469 178.073 816.302 177.312 814.594 176.375C812.885 175.417 811.583 174.26 810.688 172.906C809.792 171.552 809.344 170 809.344 168.25C809.344 165.146 810.625 162.594 813.188 160.594C815.75 158.573 819.104 157.562 823.25 157.562C827.708 157.562 831.292 158.573 834 160.594C836.708 162.615 838.062 165.271 838.062 168.562H827.5C827.5 165.854 826.073 164.5 823.219 164.5C822.115 164.5 821.188 164.812 820.438 165.438C819.688 166.042 819.312 166.802 819.312 167.719C819.312 168.656 819.771 169.417 820.688 170C821.604 170.583 823.062 171.062 825.062 171.438C827.083 171.812 828.854 172.26 830.375 172.781C835.458 174.531 838 177.667 838 182.188C838 185.271 836.625 187.781 833.875 189.719C831.146 191.656 827.604 192.625 823.25 192.625C820.354 192.625 817.771 192.104 815.5 191.062C813.229 190.021 811.458 188.604 810.188 186.812C808.917 185.021 808.281 183.135 808.281 181.156H818.125C818.167 182.719 818.688 183.865 819.688 184.594C820.688 185.302 821.969 185.656 823.531 185.656C824.969 185.656 826.042 185.365 826.75 184.781C827.479 184.198 827.844 183.438 827.844 182.5ZM622.928 262.625C617.74 262.625 613.542 261.083 610.334 258C607.125 254.896 605.521 250.865 605.521 245.906V245.031C605.521 241.573 606.157 238.521 607.428 235.875C608.719 233.229 610.594 231.188 613.053 229.75C615.511 228.292 618.428 227.562 621.803 227.562C626.553 227.562 630.303 229.042 633.053 232C635.803 234.938 637.178 239.042 637.178 244.312V248.406H616.24C616.615 250.302 617.438 251.792 618.709 252.875C619.98 253.958 621.625 254.5 623.646 254.5C626.98 254.5 629.584 253.333 631.459 251L636.271 256.688C634.959 258.5 633.094 259.948 630.678 261.031C628.282 262.094 625.698 262.625 622.928 262.625ZM621.74 235.688C618.657 235.688 616.823 237.729 616.24 241.812H626.865V241C626.907 239.312 626.48 238.01 625.584 237.094C624.688 236.156 623.407 235.688 621.74 235.688ZM674.191 216.5L684.348 248.156L694.473 216.5H708.91V262H697.91V251.375L698.973 229.625L687.973 262H680.723L669.691 229.594L670.754 251.375V262H659.785V216.5H674.191ZM732.745 262.625C727.558 262.625 723.36 261.083 720.151 258C716.943 254.896 715.339 250.865 715.339 245.906V245.031C715.339 241.573 715.974 238.521 717.245 235.875C718.537 233.229 720.412 231.188 722.87 229.75C725.328 228.292 728.245 227.562 731.62 227.562C736.37 227.562 740.12 229.042 742.87 232C745.62 234.938 746.995 239.042 746.995 244.312V248.406H726.058C726.433 250.302 727.255 251.792 728.526 252.875C729.797 253.958 731.443 254.5 733.464 254.5C736.797 254.5 739.401 253.333 741.276 251L746.089 256.688C744.776 258.5 742.912 259.948 740.495 261.031C738.099 262.094 735.516 262.625 732.745 262.625ZM731.558 235.688C728.474 235.688 726.641 237.729 726.058 241.812H736.683V241C736.724 239.312 736.297 238.01 735.401 237.094C734.505 236.156 733.224 235.688 731.558 235.688ZM764.486 219.781V228.188H770.049V235.5H764.486V250.969C764.486 252.24 764.715 253.125 765.174 253.625C765.632 254.125 766.538 254.375 767.893 254.375C768.934 254.375 769.809 254.312 770.518 254.188V261.719C768.622 262.323 766.643 262.625 764.58 262.625C760.955 262.625 758.278 261.771 756.549 260.062C754.82 258.354 753.955 255.76 753.955 252.281V235.5H749.643V228.188H753.955V219.781H764.486ZM794.228 262C793.853 261.312 793.519 260.302 793.228 258.969C791.29 261.406 788.582 262.625 785.103 262.625C781.915 262.625 779.207 261.667 776.978 259.75C774.748 257.812 773.634 255.385 773.634 252.469C773.634 248.802 774.988 246.031 777.696 244.156C780.405 242.281 784.342 241.344 789.509 241.344H792.759V239.562C792.759 236.458 791.415 234.906 788.728 234.906C786.228 234.906 784.978 236.135 784.978 238.594H774.446C774.446 235.323 775.832 232.667 778.603 230.625C781.394 228.583 784.946 227.562 789.259 227.562C793.571 227.562 796.978 228.615 799.478 230.719C801.978 232.823 803.259 235.708 803.321 239.375V254.344C803.363 257.448 803.842 259.823 804.759 261.469V262H794.228ZM787.634 255.125C788.946 255.125 790.03 254.844 790.884 254.281C791.759 253.719 792.384 253.083 792.759 252.375V246.969H789.696C786.03 246.969 784.196 248.615 784.196 251.906C784.196 252.865 784.519 253.646 785.165 254.25C785.811 254.833 786.634 255.125 787.634 255.125ZM827.844 252.5C827.844 251.604 827.375 250.885 826.438 250.344C825.5 249.802 823.719 249.24 821.094 248.656C818.469 248.073 816.302 247.312 814.594 246.375C812.885 245.417 811.583 244.26 810.688 242.906C809.792 241.552 809.344 240 809.344 238.25C809.344 235.146 810.625 232.594 813.188 230.594C815.75 228.573 819.104 227.562 823.25 227.562C827.708 227.562 831.292 228.573 834 230.594C836.708 232.615 838.062 235.271 838.062 238.562H827.5C827.5 235.854 826.073 234.5 823.219 234.5C822.115 234.5 821.188 234.812 820.438 235.438C819.688 236.042 819.312 236.802 819.312 237.719C819.312 238.656 819.771 239.417 820.688 240C821.604 240.583 823.062 241.062 825.062 241.438C827.083 241.812 828.854 242.26 830.375 242.781C835.458 244.531 838 247.667 838 252.188C838 255.271 836.625 257.781 833.875 259.719C831.146 261.656 827.604 262.625 823.25 262.625C820.354 262.625 817.771 262.104 815.5 261.062C813.229 260.021 811.458 258.604 810.188 256.812C808.917 255.021 808.281 253.135 808.281 251.156H818.125C818.167 252.719 818.688 253.865 819.688 254.594C820.688 255.302 821.969 255.656 823.531 255.656C824.969 255.656 826.042 255.365 826.75 254.781C827.479 254.198 827.844 253.438 827.844 252.5Z" fill="#5F5EEB"/>
<g clip-path="url(#clip1)">
<path d="M183.062 184.679C180.829 175.767 168.178 175.767 165.936 184.679L165.284 187.306C164.902 188.833 164.119 190.23 163.015 191.352C161.912 192.475 160.528 193.281 159.007 193.688C157.487 194.095 155.885 194.087 154.368 193.666C152.852 193.245 151.475 192.426 150.382 191.294L148.499 189.355C142.113 182.749 131.153 189.079 133.679 197.909L134.414 200.518C134.846 202.03 134.866 203.629 134.472 205.151C134.078 206.673 133.284 208.063 132.173 209.175C131.061 210.287 129.673 211.082 128.151 211.477C126.63 211.873 125.03 211.854 123.518 211.423L120.909 210.679C112.089 208.153 105.749 219.113 112.355 225.499L114.294 227.382C115.426 228.475 116.245 229.852 116.666 231.368C117.087 232.885 117.095 234.487 116.688 236.007C116.281 237.528 115.475 238.912 114.352 240.015C113.23 241.119 111.833 241.903 110.306 242.284L107.679 242.937C98.7667 245.169 98.7667 257.82 107.679 260.062L110.306 260.714C111.833 261.096 113.23 261.879 114.352 262.983C115.475 264.087 116.281 265.471 116.688 266.991C117.095 268.512 117.087 270.114 116.666 271.63C116.245 273.147 115.426 274.523 114.294 275.616L112.355 277.5C105.749 283.885 112.079 294.846 120.909 292.319L123.518 291.584C125.03 291.152 126.631 291.131 128.155 291.526C129.678 291.92 131.068 292.715 132.18 293.828C133.293 294.94 134.087 296.33 134.482 297.853C134.876 299.376 134.856 300.977 134.423 302.49L133.679 305.09C131.153 313.91 142.113 320.249 148.499 313.644L150.382 311.705C151.475 310.573 152.852 309.753 154.368 309.332C155.885 308.911 157.487 308.904 159.007 309.311C160.528 309.718 161.912 310.524 163.015 311.646C164.119 312.768 164.902 314.165 165.284 315.692L165.936 318.32C168.169 327.232 180.82 327.232 183.062 318.32L183.714 315.692C184.096 314.165 184.879 312.768 185.983 311.646C187.087 310.524 188.471 309.718 189.991 309.311C191.512 308.904 193.113 308.911 194.63 309.332C196.147 309.753 197.523 310.573 198.616 311.705L200.5 313.644C206.885 320.249 217.846 313.919 215.319 305.09L214.584 302.481C214.152 300.968 214.131 299.367 214.526 297.844C214.92 296.321 215.715 294.931 216.827 293.818C217.94 292.706 219.33 291.911 220.853 291.517C222.376 291.122 223.977 291.142 225.49 291.575L228.09 292.319C236.91 294.846 243.249 283.885 236.643 277.5L234.705 275.616C233.573 274.523 232.753 273.147 232.332 271.63C231.911 270.114 231.904 268.512 232.311 266.991C232.718 265.471 233.524 264.087 234.646 262.983C235.768 261.879 237.165 261.096 238.692 260.714L241.32 260.062C250.232 257.829 250.232 245.178 241.32 242.937L238.692 242.284C237.165 241.903 235.768 241.119 234.646 240.015C233.524 238.912 232.718 237.528 232.311 236.007C231.904 234.487 231.911 232.885 232.332 231.368C232.753 229.852 233.573 228.475 234.705 227.382L236.643 225.499C243.249 219.113 236.919 208.153 228.09 210.679L225.481 211.414C223.969 211.846 222.369 211.866 220.847 211.472C219.325 211.078 217.936 210.284 216.824 209.173C215.712 208.062 214.917 206.673 214.521 205.151C214.126 203.63 214.144 202.03 214.575 200.518L215.319 197.909C217.846 189.089 206.885 182.749 200.5 189.355L198.616 191.294C197.523 192.426 196.147 193.245 194.63 193.666C193.113 194.087 191.512 194.095 189.991 193.688C188.471 193.281 187.087 192.475 185.983 191.352C184.879 190.23 184.096 188.833 183.714 187.306L183.062 184.679ZM174.499 297.409C168.415 297.495 162.374 296.371 156.728 294.102C151.082 291.834 145.943 288.465 141.61 284.193C137.277 279.921 133.837 274.83 131.488 269.217C129.14 263.604 127.931 257.58 127.931 251.495C127.931 245.41 129.14 239.386 131.488 233.772C133.837 228.159 137.277 223.068 141.61 218.796C145.943 214.524 151.082 211.156 156.728 208.887C162.374 206.618 168.415 205.494 174.499 205.58C186.678 205.58 198.357 210.418 206.969 219.03C215.58 227.641 220.418 239.321 220.418 251.499C220.418 263.678 215.58 275.358 206.969 283.969C198.357 292.581 186.678 297.418 174.499 297.418V297.409Z" fill="#0E78B2"/>
</g>
<path d="M275.684 255.046C274.332 249.651 266.673 249.651 265.316 255.046L264.921 256.637C264.69 257.562 264.216 258.408 263.548 259.087C262.879 259.766 262.042 260.254 261.121 260.501C260.201 260.747 259.231 260.742 258.313 260.488C257.394 260.233 256.561 259.737 255.899 259.051L254.759 257.878C250.893 253.878 244.258 257.711 245.787 263.056L246.232 264.636C246.494 265.551 246.506 266.519 246.267 267.441C246.029 268.362 245.548 269.203 244.875 269.877C244.203 270.55 243.362 271.031 242.441 271.27C241.52 271.51 240.551 271.499 239.636 271.238L238.056 270.787C232.716 269.258 228.878 275.893 232.878 279.759L234.051 280.899C234.737 281.561 235.233 282.394 235.488 283.313C235.742 284.231 235.747 285.201 235.501 286.121C235.254 287.042 234.766 287.879 234.087 288.548C233.408 289.216 232.562 289.69 231.637 289.921L230.046 290.316C224.651 291.668 224.651 299.327 230.046 300.684L231.637 301.079C232.562 301.31 233.408 301.784 234.087 302.452C234.766 303.121 235.254 303.958 235.501 304.879C235.747 305.799 235.742 306.769 235.488 307.687C235.233 308.606 234.737 309.439 234.051 310.101L232.878 311.241C228.878 315.107 232.711 321.742 238.056 320.213L239.636 319.768C240.551 319.506 241.521 319.493 242.443 319.732C243.365 319.971 244.206 320.452 244.88 321.126C245.553 321.799 246.034 322.641 246.273 323.563C246.512 324.485 246.5 325.454 246.238 326.37L245.787 327.944C244.258 333.284 250.893 337.122 254.759 333.122L255.899 331.949C256.561 331.263 257.394 330.767 258.313 330.512C259.231 330.258 260.201 330.253 261.121 330.499C262.042 330.746 262.879 331.234 263.548 331.913C264.216 332.592 264.69 333.438 264.921 334.363L265.316 335.954C266.668 341.349 274.327 341.349 275.684 335.954L276.079 334.363C276.31 333.438 276.784 332.592 277.452 331.913C278.121 331.234 278.958 330.746 279.879 330.499C280.799 330.253 281.769 330.258 282.687 330.512C283.606 330.767 284.439 331.263 285.101 331.949L286.241 333.122C290.107 337.122 296.742 333.289 295.213 327.944L294.768 326.364C294.506 325.449 294.493 324.479 294.732 323.557C294.971 322.635 295.452 321.794 296.126 321.12C296.799 320.447 297.641 319.966 298.563 319.727C299.485 319.488 300.454 319.5 301.37 319.762L302.944 320.213C308.284 321.742 312.122 315.107 308.122 311.241L306.949 310.101C306.263 309.439 305.767 308.606 305.512 307.687C305.258 306.769 305.253 305.799 305.499 304.879C305.746 303.958 306.234 303.121 306.913 302.452C307.592 301.784 308.438 301.31 309.363 301.079L310.954 300.684C316.349 299.332 316.349 291.673 310.954 290.316L309.363 289.921C308.438 289.69 307.592 289.216 306.913 288.548C306.234 287.879 305.746 287.042 305.499 286.121C305.253 285.201 305.258 284.231 305.512 283.313C305.767 282.394 306.263 281.561 306.949 280.899L308.122 279.759C312.122 275.893 308.289 269.258 302.944 270.787L301.364 271.232C300.449 271.494 299.481 271.506 298.559 271.267C297.638 271.029 296.797 270.548 296.123 269.875C295.45 269.203 294.969 268.362 294.73 267.441C294.49 266.52 294.501 265.551 294.762 264.636L295.213 263.056C296.742 257.716 290.107 253.878 286.241 257.878L285.101 259.051C284.439 259.737 283.606 260.233 282.687 260.488C281.769 260.742 280.799 260.747 279.879 260.501C278.958 260.254 278.121 259.766 277.452 259.087C276.784 258.408 276.31 257.562 276.079 256.637L275.684 255.046ZM270.5 323.294C266.817 323.346 263.16 322.666 259.741 321.292C256.323 319.919 253.212 317.879 250.589 315.293C247.966 312.707 245.883 309.625 244.461 306.226C243.039 302.828 242.307 299.181 242.307 295.497C242.307 291.813 243.039 288.166 244.461 284.768C245.883 281.37 247.966 278.288 250.589 275.701C253.212 273.115 256.323 271.076 259.741 269.702C263.16 268.329 266.817 267.648 270.5 267.7C277.873 267.7 284.944 270.629 290.157 275.843C295.371 281.056 298.3 288.127 298.3 295.5C298.3 302.873 295.371 309.944 290.157 315.157C284.944 320.371 277.873 323.3 270.5 323.3V323.294Z" fill="#0E78B2"/>
<path d="M287.684 182.046C286.332 176.651 278.673 176.651 277.316 182.046L276.921 183.637C276.69 184.562 276.216 185.408 275.548 186.087C274.879 186.766 274.042 187.254 273.121 187.501C272.201 187.747 271.231 187.742 270.313 187.488C269.394 187.233 268.561 186.737 267.899 186.051L266.759 184.878C262.893 180.878 256.258 184.711 257.787 190.056L258.232 191.636C258.494 192.551 258.506 193.519 258.267 194.441C258.029 195.362 257.548 196.203 256.875 196.877C256.203 197.55 255.362 198.031 254.441 198.27C253.52 198.51 252.551 198.499 251.636 198.238L250.056 197.787C244.716 196.258 240.878 202.893 244.878 206.759L246.051 207.899C246.737 208.561 247.233 209.394 247.488 210.313C247.742 211.231 247.747 212.201 247.501 213.121C247.254 214.042 246.766 214.879 246.087 215.548C245.408 216.216 244.562 216.69 243.637 216.921L242.046 217.316C236.651 218.668 236.651 226.327 242.046 227.684L243.637 228.079C244.562 228.31 245.408 228.784 246.087 229.452C246.766 230.121 247.254 230.958 247.501 231.879C247.747 232.799 247.742 233.769 247.488 234.687C247.233 235.606 246.737 236.439 246.051 237.101L244.878 238.241C240.878 242.107 244.711 248.742 250.056 247.213L251.636 246.768C252.551 246.506 253.521 246.493 254.443 246.732C255.365 246.971 256.206 247.452 256.88 248.126C257.553 248.799 258.034 249.641 258.273 250.563C258.512 251.485 258.5 252.454 258.238 253.37L257.787 254.944C256.258 260.284 262.893 264.122 266.759 260.122L267.899 258.949C268.561 258.263 269.394 257.767 270.313 257.512C271.231 257.258 272.201 257.253 273.121 257.499C274.042 257.746 274.879 258.234 275.548 258.913C276.216 259.592 276.69 260.438 276.921 261.363L277.316 262.954C278.668 268.349 286.327 268.349 287.684 262.954L288.079 261.363C288.31 260.438 288.784 259.592 289.452 258.913C290.121 258.234 290.958 257.746 291.879 257.499C292.799 257.253 293.769 257.258 294.687 257.512C295.606 257.767 296.439 258.263 297.101 258.949L298.241 260.122C302.107 264.122 308.742 260.289 307.213 254.944L306.768 253.364C306.506 252.449 306.493 251.479 306.732 250.557C306.971 249.635 307.452 248.794 308.126 248.12C308.799 247.447 309.641 246.966 310.563 246.727C311.485 246.488 312.454 246.5 313.37 246.762L314.944 247.213C320.284 248.742 324.122 242.107 320.122 238.241L318.949 237.101C318.263 236.439 317.767 235.606 317.512 234.687C317.258 233.769 317.253 232.799 317.499 231.879C317.746 230.958 318.234 230.121 318.913 229.452C319.592 228.784 320.438 228.31 321.363 228.079L322.954 227.684C328.349 226.332 328.349 218.673 322.954 217.316L321.363 216.921C320.438 216.69 319.592 216.216 318.913 215.548C318.234 214.879 317.746 214.042 317.499 213.121C317.253 212.201 317.258 211.231 317.512 210.313C317.767 209.394 318.263 208.561 318.949 207.899L320.122 206.759C324.122 202.893 320.289 196.258 314.944 197.787L313.364 198.232C312.449 198.494 311.481 198.506 310.559 198.267C309.638 198.029 308.797 197.548 308.123 196.875C307.45 196.203 306.969 195.362 306.73 194.441C306.49 193.52 306.501 192.551 306.762 191.636L307.213 190.056C308.742 184.716 302.107 180.878 298.241 184.878L297.101 186.051C296.439 186.737 295.606 187.233 294.687 187.488C293.769 187.742 292.799 187.747 291.879 187.501C290.958 187.254 290.121 186.766 289.452 186.087C288.784 185.408 288.31 184.562 288.079 183.637L287.684 182.046ZM282.5 250.294C278.817 250.346 275.16 249.666 271.741 248.292C268.323 246.919 265.212 244.879 262.589 242.293C259.966 239.707 257.883 236.625 256.461 233.226C255.039 229.828 254.307 226.181 254.307 222.497C254.307 218.813 255.039 215.166 256.461 211.768C257.883 208.37 259.966 205.288 262.589 202.701C265.212 200.115 268.323 198.076 271.741 196.702C275.16 195.329 278.817 194.648 282.5 194.7C289.873 194.7 296.944 197.629 302.157 202.843C307.371 208.056 310.3 215.127 310.3 222.5C310.3 229.873 307.371 236.944 302.157 242.157C296.944 247.371 289.873 250.3 282.5 250.3V250.294Z" fill="#0E78B2"/>
<path fill-rule="evenodd" clip-rule="evenodd" d="M190.913 109.102C190.913 119.099 182.809 127.203 172.811 127.203C162.814 127.203 154.71 119.099 154.71 109.102C154.71 99.1043 162.814 91 172.811 91C182.809 91 190.913 99.1043 190.913 109.102ZM59.203 212.883C59.203 222.881 51.0987 230.985 41.1015 230.985C31.1043 230.985 23 222.881 23 212.883C23 202.886 31.1043 194.782 41.1015 194.782C51.0987 194.782 59.203 202.886 59.203 212.883ZM41.1015 310.287C51.0987 310.287 59.203 302.182 59.203 292.185C59.203 282.188 51.0987 274.084 41.1015 274.084C31.1043 274.084 23 282.188 23 292.185C23 302.182 31.1043 310.287 41.1015 310.287ZM190.913 393.898C190.913 403.896 182.809 412 172.811 412C162.814 412 154.71 403.896 154.71 393.898C154.71 383.901 162.814 375.797 172.811 375.797C182.809 375.797 190.913 383.901 190.913 393.898ZM172.812 146.166C167.956 146.166 164.019 150.103 164.019 154.959V161.165C164.019 166.021 167.956 169.957 172.812 169.957C177.667 169.957 181.604 166.021 181.604 161.165V154.959C181.604 150.103 177.667 146.166 172.812 146.166ZM164.019 344.593C164.019 339.738 167.956 335.801 172.812 335.801C177.667 335.801 181.604 339.738 181.604 344.593V350.8C181.604 355.655 177.667 359.592 172.812 359.592C167.956 359.592 164.019 355.655 164.019 350.8V344.593ZM212.462 335.801C207.607 335.801 203.67 339.738 203.67 344.593V363.557C203.67 368.413 207.607 372.349 212.462 372.349C215.257 372.349 217.748 371.045 219.358 369.012C220.969 371.045 223.459 372.349 226.254 372.349H294.522C296.774 372.349 298.828 371.503 300.384 370.11C301.939 371.503 303.994 372.349 306.245 372.349C311.101 372.349 315.038 368.413 315.038 363.557V336.663C315.038 331.807 311.101 327.871 306.245 327.871C301.39 327.871 297.453 331.807 297.453 336.663V355.265C296.537 354.941 295.55 354.765 294.522 354.765H226.254C224.397 354.765 222.674 355.341 221.255 356.324V344.593C221.255 339.738 217.318 335.801 212.462 335.801ZM142.642 161.165C142.642 166.021 138.706 169.957 133.85 169.957C128.994 169.957 125.058 166.021 125.058 161.165V149.435C123.639 150.418 121.916 150.994 120.059 150.994H51.7901C50.7625 150.994 49.776 150.817 48.8594 150.493V169.095C48.8594 173.951 44.923 177.887 40.0672 177.887C35.2114 177.887 31.275 173.951 31.275 169.095V142.201C31.275 137.346 35.2114 133.409 40.0672 133.409C42.319 133.409 44.3731 134.256 45.9286 135.648C47.4841 134.256 49.5382 133.409 51.7901 133.409H120.059C122.854 133.409 125.344 134.713 126.954 136.746C128.565 134.713 131.055 133.409 133.85 133.409C138.706 133.409 142.642 137.346 142.642 142.201V161.165ZM133.85 335.801C138.706 335.801 142.642 339.738 142.642 344.593V363.557C142.642 368.413 138.706 372.349 133.85 372.349C131.055 372.349 128.565 371.045 126.954 369.012C125.344 371.045 122.854 372.349 120.059 372.349H51.7901C49.5382 372.349 47.4841 371.503 45.9286 370.11C44.3731 371.503 42.319 372.349 40.0672 372.349C35.2114 372.349 31.275 368.413 31.275 363.557V336.663C31.275 331.807 35.2114 327.871 40.0672 327.871C44.923 327.871 48.8594 331.807 48.8594 336.663V355.265C49.776 354.941 50.7625 354.765 51.7901 354.765H120.059C121.916 354.765 123.639 355.341 125.058 356.324V344.593C125.058 339.738 128.994 335.801 133.85 335.801ZM203.67 161.165C203.67 166.021 207.607 169.957 212.462 169.957C217.318 169.957 221.255 166.021 221.255 161.165V149.435C222.674 150.418 224.397 150.994 226.254 150.994H294.522C295.55 150.994 296.537 150.817 297.453 150.493V169.095C297.453 173.951 301.39 177.887 306.245 177.887C311.101 177.887 315.038 173.951 315.038 169.095V142.201C315.038 137.346 311.101 133.409 306.245 133.409C303.994 133.409 301.939 134.256 300.384 135.648C298.828 134.256 296.774 133.409 294.522 133.409H226.254C223.459 133.409 220.969 134.713 219.358 136.746C217.748 134.713 215.257 133.409 212.462 133.409C207.607 133.409 203.67 137.346 203.67 142.201V161.165ZM171.262 230.985C160.216 230.985 151.262 239.939 151.262 250.985V254.084C151.262 265.129 160.216 274.084 171.262 274.084H174.361C185.407 274.084 194.361 265.129 194.361 254.084V250.985C194.361 239.939 185.407 230.985 174.361 230.985H171.262ZM81.9592 204.091L90.579 204.091V221.331H81.9592H81.6144H78.1666V220.614C75.1222 219.284 72.9946 216.246 72.9946 212.711C72.9946 209.176 75.1222 206.139 78.1666 204.809V204.091L81.6144 204.091H81.9592ZM81.9592 245.811H90.579V263.05H81.9756L81.9592 263.05H81.6144L81.598 263.05H78.1666V262.333C75.1222 261.003 72.9946 257.965 72.9946 254.431C72.9946 250.896 75.1222 247.858 78.1666 246.528V245.811H81.6144H81.9592ZM81.9592 283.393H90.579V300.633H81.9592H81.6144H78.1666V299.915C75.1222 298.585 72.9946 295.548 72.9946 292.013C72.9946 288.478 75.1222 285.44 78.1666 284.11V283.393H81.6144H81.9592Z" fill="#B20000"/>
<path d="M249 295C249 283.954 257.954 275 269 275H272.099C283.145 275 292.099 283.954 292.099 295V298.099C292.099 309.145 283.145 318.099 272.099 318.099H269C257.954 318.099 249 309.145 249 298.099V295Z" fill="#B20000"/>
<path d="M261 222C261 210.954 269.954 202 281 202H284.099C295.145 202 304.099 210.954 304.099 222V225.099C304.099 236.145 295.145 245.099 284.099 245.099H281C269.954 245.099 261 236.145 261 225.099V222Z" fill="#B20000"/>
</g>
<defs>
<linearGradient id="paint0_linear" x1="163.112" y1="-60" x2="163.112" y2="540" gradientUnits="userSpaceOnUse">
<stop stop-color="#495DFF"/>
<stop offset="1" stop-color="#FE6955"/>
</linearGradient>
<linearGradient id="paint1_linear" x1="164.26" y1="-10" x2="164.26" y2="490" gradientUnits="userSpaceOnUse">
<stop stop-color="#495DFF"/>
<stop offset="1" stop-color="#FE6955"/>
</linearGradient>
<linearGradient id="paint2_linear" x1="166.408" y1="41" x2="166.408" y2="441" gradientUnits="userSpaceOnUse">
<stop stop-color="#495DFF"/>
<stop offset="1" stop-color="#FE6955"/>
</linearGradient>
<clipPath id="clip0">
<rect width="960" height="480" fill="white"/>
</clipPath>
<clipPath id="clip1">
<rect width="147" height="147" fill="white" transform="translate(101 178)"/>
</clipPath>
</defs>
</svg>
