<svg width="29" height="29" viewBox="0 0 29 29" fill="none" xmlns="http://www.w3.org/2000/svg">
<path d="M22.9583 4.83341H19.3333V2.41675H16.9167V4.83341H12.0833V2.41675H9.66667V4.83341H6.04167C4.70887 4.83341 3.625 5.91729 3.625 7.25008V24.1667C3.625 25.4995 4.70887 26.5834 6.04167 26.5834H22.9583C24.2911 26.5834 25.375 25.4995 25.375 24.1667V7.25008C25.375 5.91729 24.2911 4.83341 22.9583 4.83341ZM6.04167 24.1667V8.45841H22.9583V7.25008L22.9608 24.1667H6.04167Z" fill="#10B2AE"/>
<path d="M18.8838 14.7213L16.7088 12.5475L18.3642 10.8909L20.5392 13.0647L18.8838 14.7213ZM9.6727 19.5764V21.7502H11.8465L17.8592 15.7447L15.6854 13.571L9.6727 19.5764Z" fill="#10B2AE"/>
</svg>
