<svg width="960" height="480" viewBox="0 0 960 480" fill="none" xmlns="http://www.w3.org/2000/svg">
<g clip-path="url(#clip0)">
<rect width="960" height="480" fill="#00D1FF"/>
<mask id="mask0" mask-type="alpha" maskUnits="userSpaceOnUse" x="-30" y="0" width="500" height="480">
<rect x="-30" width="500" height="480" fill="white"/>
</mask>
<g mask="url(#mask0)">
<circle opacity="0.2" cx="170" cy="240" r="300" fill="url(#paint0_linear)"/>
<circle opacity="0.4" cx="170" cy="240" r="250" fill="url(#paint1_linear)"/>
<circle cx="171" cy="241" r="200" fill="url(#paint2_linear)"/>
</g>
<path d="M673.137 192H662.2V146.5H673.137V192ZM668.981 134.312H680.106L671.419 144.125H662.825L668.981 134.312ZM690.91 158.188L691.254 162.156C693.587 159.094 696.806 157.562 700.91 157.562C704.431 157.562 707.056 158.615 708.785 160.719C710.535 162.823 711.441 165.99 711.504 170.219V192H700.941V170.656C700.941 168.948 700.598 167.698 699.91 166.906C699.223 166.094 697.973 165.688 696.16 165.688C694.098 165.688 692.566 166.5 691.566 168.125V192H681.035V158.188H690.91ZM716.995 174.844C716.995 169.49 718.151 165.271 720.464 162.188C722.776 159.104 726.005 157.562 730.151 157.562C733.172 157.562 735.714 158.75 737.776 161.125V144H748.339V192H738.87L738.339 188.375C736.172 191.208 733.422 192.625 730.089 192.625C726.068 192.625 722.88 191.083 720.526 188C718.172 184.917 716.995 180.531 716.995 174.844ZM727.526 175.5C727.526 181.5 729.276 184.5 732.776 184.5C735.11 184.5 736.776 183.521 737.776 181.562V168.688C736.818 166.688 735.172 165.688 732.839 165.688C729.589 165.688 727.828 168.312 727.557 173.562L727.526 175.5ZM766.392 192H755.83V158.188H766.392V192ZM755.205 149.469C755.205 147.969 755.747 146.74 756.83 145.781C757.913 144.823 759.32 144.344 761.049 144.344C762.778 144.344 764.184 144.823 765.267 145.781C766.351 146.74 766.892 147.969 766.892 149.469C766.892 150.969 766.351 152.198 765.267 153.156C764.184 154.115 762.778 154.594 761.049 154.594C759.32 154.594 757.913 154.115 756.83 153.156C755.747 152.198 755.205 150.969 755.205 149.469ZM788.165 184.5C789.644 184.5 790.79 184.104 791.602 183.312C792.415 182.5 792.811 181.375 792.79 179.938H802.665C802.665 183.646 801.332 186.688 798.665 189.062C796.019 191.438 792.602 192.625 788.415 192.625C783.498 192.625 779.623 191.083 776.79 188C773.957 184.917 772.54 180.646 772.54 175.188V174.75C772.54 171.333 773.165 168.323 774.415 165.719C775.686 163.094 777.509 161.083 779.884 159.688C782.259 158.271 785.071 157.562 788.321 157.562C792.717 157.562 796.207 158.781 798.79 161.219C801.373 163.656 802.665 166.958 802.665 171.125H792.79C792.79 169.375 792.363 168.031 791.509 167.094C790.655 166.156 789.509 165.688 788.071 165.688C785.342 165.688 783.748 167.427 783.29 170.906C783.144 172.01 783.071 173.531 783.071 175.469C783.071 178.865 783.477 181.219 784.29 182.531C785.102 183.844 786.394 184.5 788.165 184.5ZM824.438 192.625C819.25 192.625 815.052 191.083 811.844 188C808.635 184.896 807.031 180.865 807.031 175.906V175.031C807.031 171.573 807.667 168.521 808.938 165.875C810.229 163.229 812.104 161.188 814.562 159.75C817.021 158.292 819.938 157.562 823.312 157.562C828.062 157.562 831.812 159.042 834.562 162C837.312 164.938 838.688 169.042 838.688 174.312V178.406H817.75C818.125 180.302 818.948 181.792 820.219 182.875C821.49 183.958 823.135 184.5 825.156 184.5C828.49 184.5 831.094 183.333 832.969 181L837.781 186.688C836.469 188.5 834.604 189.948 832.188 191.031C829.792 192.094 827.208 192.625 824.438 192.625ZM823.25 165.688C820.167 165.688 818.333 167.729 817.75 171.812H828.375V171C828.417 169.312 827.99 168.01 827.094 167.094C826.198 166.156 824.917 165.688 823.25 165.688ZM587.53 244.844C587.53 239.49 588.686 235.271 590.999 232.188C593.311 229.104 596.54 227.562 600.686 227.562C603.707 227.562 606.249 228.75 608.311 231.125V214H618.874V262H609.405L608.874 258.375C606.707 261.208 603.957 262.625 600.624 262.625C596.603 262.625 593.415 261.083 591.061 258C588.707 254.917 587.53 250.531 587.53 244.844ZM598.061 245.5C598.061 251.5 599.811 254.5 603.311 254.5C605.645 254.5 607.311 253.521 608.311 251.562V238.688C607.353 236.688 605.707 235.688 603.374 235.688C600.124 235.688 598.363 238.312 598.092 243.562L598.061 245.5ZM642.177 262.625C636.99 262.625 632.792 261.083 629.584 258C626.375 254.896 624.771 250.865 624.771 245.906V245.031C624.771 241.573 625.407 238.521 626.677 235.875C627.969 233.229 629.844 231.188 632.302 229.75C634.761 228.292 637.677 227.562 641.052 227.562C645.802 227.562 649.552 229.042 652.302 232C655.052 234.938 656.427 239.042 656.427 244.312V248.406H635.49C635.865 250.302 636.688 251.792 637.959 252.875C639.23 253.958 640.875 254.5 642.896 254.5C646.23 254.5 648.834 253.333 650.709 251L655.521 256.688C654.209 258.5 652.344 259.948 649.927 261.031C647.532 262.094 644.948 262.625 642.177 262.625ZM640.99 235.688C637.907 235.688 636.073 237.729 635.49 241.812H646.115V241C646.157 239.312 645.73 238.01 644.834 237.094C643.938 236.156 642.657 235.688 640.99 235.688ZM715.848 246.594C715.702 249.76 714.848 252.562 713.285 255C711.723 257.417 709.525 259.292 706.691 260.625C703.879 261.958 700.66 262.625 697.035 262.625C691.056 262.625 686.348 260.677 682.91 256.781C679.473 252.885 677.754 247.385 677.754 240.281V238.031C677.754 233.573 678.525 229.677 680.066 226.344C681.629 222.99 683.868 220.406 686.785 218.594C689.702 216.76 693.077 215.844 696.91 215.844C702.431 215.844 706.868 217.302 710.223 220.219C713.577 223.115 715.483 227.115 715.941 232.219H705.004C704.92 229.448 704.223 227.458 702.91 226.25C701.598 225.042 699.598 224.438 696.91 224.438C694.181 224.438 692.181 225.458 690.91 227.5C689.639 229.542 688.973 232.802 688.91 237.281V240.5C688.91 245.354 689.514 248.823 690.723 250.906C691.952 252.99 694.056 254.031 697.035 254.031C699.556 254.031 701.483 253.438 702.816 252.25C704.15 251.062 704.858 249.177 704.941 246.594H715.848ZM740.557 262C740.182 261.312 739.849 260.302 739.557 258.969C737.62 261.406 734.912 262.625 731.432 262.625C728.245 262.625 725.537 261.667 723.307 259.75C721.078 257.812 719.964 255.385 719.964 252.469C719.964 248.802 721.318 246.031 724.026 244.156C726.735 242.281 730.672 241.344 735.839 241.344H739.089V239.562C739.089 236.458 737.745 234.906 735.057 234.906C732.557 234.906 731.307 236.135 731.307 238.594H720.776C720.776 235.323 722.162 232.667 724.932 230.625C727.724 228.583 731.276 227.562 735.589 227.562C739.901 227.562 743.307 228.615 745.807 230.719C748.307 232.823 749.589 235.708 749.651 239.375V254.344C749.693 257.448 750.172 259.823 751.089 261.469V262H740.557ZM733.964 255.125C735.276 255.125 736.36 254.844 737.214 254.281C738.089 253.719 738.714 253.083 739.089 252.375V246.969H736.026C732.36 246.969 730.526 248.615 730.526 251.906C730.526 252.865 730.849 253.646 731.495 254.25C732.141 254.833 732.964 255.125 733.964 255.125ZM767.58 262H757.018V228.188H767.58V262ZM756.393 219.469C756.393 217.969 756.934 216.74 758.018 215.781C759.101 214.823 760.507 214.344 762.236 214.344C763.965 214.344 765.372 214.823 766.455 215.781C767.538 216.74 768.08 217.969 768.08 219.469C768.08 220.969 767.538 222.198 766.455 223.156C765.372 224.115 763.965 224.594 762.236 224.594C760.507 224.594 759.101 224.115 758.018 223.156C756.934 222.198 756.393 220.969 756.393 219.469ZM788.759 237.5L793.665 228.188H804.602L795.696 244.656L805.04 262H794.04L788.727 252L783.509 262H772.446L781.821 244.656L772.946 228.188H784.009L788.759 237.5ZM828 262C827.625 261.312 827.292 260.302 827 258.969C825.062 261.406 822.354 262.625 818.875 262.625C815.688 262.625 812.979 261.667 810.75 259.75C808.521 257.812 807.406 255.385 807.406 252.469C807.406 248.802 808.76 246.031 811.469 244.156C814.177 242.281 818.115 241.344 823.281 241.344H826.531V239.562C826.531 236.458 825.188 234.906 822.5 234.906C820 234.906 818.75 236.135 818.75 238.594H808.219C808.219 235.323 809.604 232.667 812.375 230.625C815.167 228.583 818.719 227.562 823.031 227.562C827.344 227.562 830.75 228.615 833.25 230.719C835.75 232.823 837.031 235.708 837.094 239.375V254.344C837.135 257.448 837.615 259.823 838.531 261.469V262H828ZM821.406 255.125C822.719 255.125 823.802 254.844 824.656 254.281C825.531 253.719 826.156 253.083 826.531 252.375V246.969H823.469C819.802 246.969 817.969 248.615 817.969 251.906C817.969 252.865 818.292 253.646 818.938 254.25C819.583 254.833 820.406 255.125 821.406 255.125ZM533.789 323.5H518.758L516.133 332H504.414L521.101 286.5H531.414L548.226 332H536.445L533.789 323.5ZM521.383 315.031H531.164L526.258 299.25L521.383 315.031ZM566.343 324.5C567.822 324.5 568.968 324.104 569.78 323.312C570.593 322.5 570.988 321.375 570.968 319.938H580.843C580.843 323.646 579.509 326.688 576.843 329.062C574.197 331.438 570.78 332.625 566.593 332.625C561.676 332.625 557.801 331.083 554.968 328C552.134 324.917 550.718 320.646 550.718 315.188V314.75C550.718 311.333 551.343 308.323 552.593 305.719C553.863 303.094 555.686 301.083 558.061 299.688C560.436 298.271 563.249 297.562 566.499 297.562C570.895 297.562 574.384 298.781 576.968 301.219C579.551 303.656 580.843 306.958 580.843 311.125H570.968C570.968 309.375 570.54 308.031 569.686 307.094C568.832 306.156 567.686 305.688 566.249 305.688C563.52 305.688 561.926 307.427 561.468 310.906C561.322 312.01 561.249 313.531 561.249 315.469C561.249 318.865 561.655 321.219 562.468 322.531C563.28 323.844 564.572 324.5 566.343 324.5ZM606.396 328.344C604.167 331.198 601.157 332.625 597.365 332.625C593.657 332.625 590.844 331.552 588.928 329.406C587.032 327.24 586.084 324.135 586.084 320.094V298.188H596.615V320.156C596.615 323.052 598.021 324.5 600.834 324.5C603.25 324.5 604.969 323.635 605.99 321.906V298.188H616.584V332H606.709L606.396 328.344ZM633.294 298.188L633.638 302.156C636.033 299.094 639.252 297.562 643.294 297.562C647.565 297.562 650.45 299.26 651.95 302.656C654.242 299.26 657.554 297.562 661.888 297.562C668.742 297.562 672.263 301.708 672.45 310V332H661.888V310.656C661.888 308.927 661.596 307.667 661.013 306.875C660.429 306.083 659.367 305.688 657.825 305.688C655.742 305.688 654.19 306.615 653.169 308.469L653.2 308.906V332H642.638V310.719C642.638 308.948 642.356 307.667 641.794 306.875C641.231 306.083 640.158 305.688 638.575 305.688C636.554 305.688 635.013 306.615 633.95 308.469V332H623.419V298.188H633.294ZM699.566 328.344C697.337 331.198 694.327 332.625 690.535 332.625C686.827 332.625 684.014 331.552 682.098 329.406C680.202 327.24 679.254 324.135 679.254 320.094V298.188H689.785V320.156C689.785 323.052 691.191 324.5 694.004 324.5C696.42 324.5 698.139 323.635 699.16 321.906V298.188H709.754V332H699.879L699.566 328.344ZM727.62 332H717.058V284H727.62V332ZM754.143 332C753.768 331.312 753.434 330.302 753.143 328.969C751.205 331.406 748.497 332.625 745.018 332.625C741.83 332.625 739.122 331.667 736.893 329.75C734.663 327.812 733.549 325.385 733.549 322.469C733.549 318.802 734.903 316.031 737.611 314.156C740.32 312.281 744.257 311.344 749.424 311.344H752.674V309.562C752.674 306.458 751.33 304.906 748.643 304.906C746.143 304.906 744.893 306.135 744.893 308.594H734.361C734.361 305.323 735.747 302.667 738.518 300.625C741.309 298.583 744.861 297.562 749.174 297.562C753.486 297.562 756.893 298.615 759.393 300.719C761.893 302.823 763.174 305.708 763.236 309.375V324.344C763.278 327.448 763.757 329.823 764.674 331.469V332H754.143ZM747.549 325.125C748.861 325.125 749.945 324.844 750.799 324.281C751.674 323.719 752.299 323.083 752.674 322.375V316.969H749.611C745.945 316.969 744.111 318.615 744.111 321.906C744.111 322.865 744.434 323.646 745.08 324.25C745.726 324.833 746.549 325.125 747.549 325.125ZM768.728 314.844C768.728 309.49 769.884 305.271 772.196 302.188C774.509 299.104 777.738 297.562 781.884 297.562C784.905 297.562 787.446 298.75 789.509 301.125V284H800.071V332H790.603L790.071 328.375C787.905 331.208 785.155 332.625 781.821 332.625C777.8 332.625 774.613 331.083 772.259 328C769.905 324.917 768.728 320.531 768.728 314.844ZM779.259 315.5C779.259 321.5 781.009 324.5 784.509 324.5C786.842 324.5 788.509 323.521 789.509 321.562V308.688C788.55 306.688 786.905 305.688 784.571 305.688C781.321 305.688 779.561 308.312 779.29 313.562L779.259 315.5ZM805.688 314.781C805.688 311.406 806.344 308.406 807.656 305.781C808.969 303.135 810.854 301.104 813.312 299.688C815.771 298.271 818.656 297.562 821.969 297.562C827.031 297.562 831.021 299.135 833.938 302.281C836.854 305.406 838.312 309.667 838.312 315.062V315.438C838.312 320.708 836.844 324.896 833.906 328C830.99 331.083 827.031 332.625 822.031 332.625C817.219 332.625 813.354 331.188 810.438 328.312C807.521 325.417 805.948 321.5 805.719 316.562L805.688 314.781ZM816.219 315.438C816.219 318.562 816.708 320.854 817.688 322.312C818.667 323.771 820.115 324.5 822.031 324.5C825.781 324.5 827.698 321.615 827.781 315.844V314.781C827.781 308.719 825.844 305.688 821.969 305.688C818.448 305.688 816.542 308.302 816.25 313.531L816.219 315.438Z" fill="#212121"/>
<rect x="44" y="174" width="28" height="128" fill="#00D1FF"/>
<rect x="92" y="163" width="28" height="139" fill="#00D1FF"/>
<rect x="140" y="154" width="28" height="148" fill="#00D1FF"/>
<rect x="188" y="144" width="28" height="158" fill="#00D1FF"/>
<rect x="236" y="134" width="28" height="168" fill="#00D1FF"/>
</g>
<defs>
<linearGradient id="paint0_linear" x1="163.112" y1="-60" x2="163.112" y2="540" gradientUnits="userSpaceOnUse">
<stop stop-color="#495DFF"/>
<stop offset="1" stop-color="#FE6955"/>
</linearGradient>
<linearGradient id="paint1_linear" x1="164.26" y1="-10" x2="164.26" y2="490" gradientUnits="userSpaceOnUse">
<stop stop-color="#495DFF"/>
<stop offset="1" stop-color="#FE6955"/>
</linearGradient>
<linearGradient id="paint2_linear" x1="166.408" y1="41" x2="166.408" y2="441" gradientUnits="userSpaceOnUse">
<stop stop-color="#495DFF"/>
<stop offset="1" stop-color="#FE6955"/>
</linearGradient>
<clipPath id="clip0">
<rect width="960" height="480" fill="white"/>
</clipPath>
</defs>
</svg>
