<svg width="960" height="480" viewBox="0 0 960 480" fill="none" xmlns="http://www.w3.org/2000/svg">
<g clip-path="url(#clip0)">
<rect width="960" height="480" fill="#FFC700"/>
<mask id="mask0" mask-type="alpha" maskUnits="userSpaceOnUse" x="-30" y="0" width="500" height="480">
<rect x="-30" width="500" height="480" fill="white"/>
</mask>
<g mask="url(#mask0)">
<circle opacity="0.2" cx="170" cy="240" r="300" fill="url(#paint0_linear)"/>
<circle opacity="0.4" cx="170" cy="240" r="250" fill="url(#paint1_linear)"/>
<circle cx="171" cy="241" r="200" fill="url(#paint2_linear)"/>
</g>
<path d="M673.137 192H662.2V146.5H673.137V192ZM668.981 134.312H680.106L671.419 144.125H662.825L668.981 134.312ZM690.91 158.188L691.254 162.156C693.587 159.094 696.806 157.562 700.91 157.562C704.431 157.562 707.056 158.615 708.785 160.719C710.535 162.823 711.441 165.99 711.504 170.219V192H700.941V170.656C700.941 168.948 700.598 167.698 699.91 166.906C699.223 166.094 697.973 165.688 696.16 165.688C694.098 165.688 692.566 166.5 691.566 168.125V192H681.035V158.188H690.91ZM716.995 174.844C716.995 169.49 718.151 165.271 720.464 162.188C722.776 159.104 726.005 157.562 730.151 157.562C733.172 157.562 735.714 158.75 737.776 161.125V144H748.339V192H738.87L738.339 188.375C736.172 191.208 733.422 192.625 730.089 192.625C726.068 192.625 722.88 191.083 720.526 188C718.172 184.917 716.995 180.531 716.995 174.844ZM727.526 175.5C727.526 181.5 729.276 184.5 732.776 184.5C735.11 184.5 736.776 183.521 737.776 181.562V168.688C736.818 166.688 735.172 165.688 732.839 165.688C729.589 165.688 727.828 168.312 727.557 173.562L727.526 175.5ZM766.392 192H755.83V158.188H766.392V192ZM755.205 149.469C755.205 147.969 755.747 146.74 756.83 145.781C757.913 144.823 759.32 144.344 761.049 144.344C762.778 144.344 764.184 144.823 765.267 145.781C766.351 146.74 766.892 147.969 766.892 149.469C766.892 150.969 766.351 152.198 765.267 153.156C764.184 154.115 762.778 154.594 761.049 154.594C759.32 154.594 757.913 154.115 756.83 153.156C755.747 152.198 755.205 150.969 755.205 149.469ZM788.165 184.5C789.644 184.5 790.79 184.104 791.602 183.312C792.415 182.5 792.811 181.375 792.79 179.938H802.665C802.665 183.646 801.332 186.688 798.665 189.062C796.019 191.438 792.602 192.625 788.415 192.625C783.498 192.625 779.623 191.083 776.79 188C773.957 184.917 772.54 180.646 772.54 175.188V174.75C772.54 171.333 773.165 168.323 774.415 165.719C775.686 163.094 777.509 161.083 779.884 159.688C782.259 158.271 785.071 157.562 788.321 157.562C792.717 157.562 796.207 158.781 798.79 161.219C801.373 163.656 802.665 166.958 802.665 171.125H792.79C792.79 169.375 792.363 168.031 791.509 167.094C790.655 166.156 789.509 165.688 788.071 165.688C785.342 165.688 783.748 167.427 783.29 170.906C783.144 172.01 783.071 173.531 783.071 175.469C783.071 178.865 783.477 181.219 784.29 182.531C785.102 183.844 786.394 184.5 788.165 184.5ZM824.438 192.625C819.25 192.625 815.052 191.083 811.844 188C808.635 184.896 807.031 180.865 807.031 175.906V175.031C807.031 171.573 807.667 168.521 808.938 165.875C810.229 163.229 812.104 161.188 814.562 159.75C817.021 158.292 819.938 157.562 823.312 157.562C828.062 157.562 831.812 159.042 834.562 162C837.312 164.938 838.688 169.042 838.688 174.312V178.406H817.75C818.125 180.302 818.948 181.792 820.219 182.875C821.49 183.958 823.135 184.5 825.156 184.5C828.49 184.5 831.094 183.333 832.969 181L837.781 186.688C836.469 188.5 834.604 189.948 832.188 191.031C829.792 192.094 827.208 192.625 824.438 192.625ZM823.25 165.688C820.167 165.688 818.333 167.729 817.75 171.812H828.375V171C828.417 169.312 827.99 168.01 827.094 167.094C826.198 166.156 824.917 165.688 823.25 165.688ZM546.883 244.844C546.883 239.49 548.039 235.271 550.351 232.188C552.664 229.104 555.893 227.562 560.039 227.562C563.06 227.562 565.601 228.75 567.664 231.125V214H578.226V262H568.758L568.226 258.375C566.06 261.208 563.31 262.625 559.976 262.625C555.955 262.625 552.768 261.083 550.414 258C548.06 254.917 546.883 250.531 546.883 244.844ZM557.414 245.5C557.414 251.5 559.164 254.5 562.664 254.5C564.997 254.5 566.664 253.521 567.664 251.562V238.688C566.705 236.688 565.06 235.688 562.726 235.688C559.476 235.688 557.716 238.312 557.445 243.562L557.414 245.5ZM601.53 262.625C596.342 262.625 592.145 261.083 588.936 258C585.728 254.896 584.124 250.865 584.124 245.906V245.031C584.124 241.573 584.759 238.521 586.03 235.875C587.322 233.229 589.197 231.188 591.655 229.75C594.113 228.292 597.03 227.562 600.405 227.562C605.155 227.562 608.905 229.042 611.655 232C614.405 234.938 615.78 239.042 615.78 244.312V248.406H594.842C595.217 250.302 596.04 251.792 597.311 252.875C598.582 253.958 600.228 254.5 602.249 254.5C605.582 254.5 608.186 253.333 610.061 251L614.874 256.688C613.561 258.5 611.697 259.948 609.28 261.031C606.884 262.094 604.301 262.625 601.53 262.625ZM600.342 235.688C597.259 235.688 595.426 237.729 594.842 241.812H605.467V241C605.509 239.312 605.082 238.01 604.186 237.094C603.29 236.156 602.009 235.688 600.342 235.688ZM675.638 256.375C673.95 258.25 671.481 259.76 668.231 260.906C664.981 262.052 661.419 262.625 657.544 262.625C651.585 262.625 646.825 260.802 643.263 257.156C639.7 253.51 637.794 248.438 637.544 241.938L637.513 238C637.513 233.521 638.304 229.615 639.888 226.281C641.471 222.927 643.731 220.354 646.669 218.562C649.627 216.75 653.044 215.844 656.919 215.844C662.585 215.844 666.981 217.146 670.106 219.75C673.252 222.333 675.085 226.198 675.606 231.344H665.044C664.669 228.802 663.856 226.99 662.606 225.906C661.356 224.823 659.585 224.281 657.294 224.281C654.544 224.281 652.419 225.448 650.919 227.781C649.419 230.115 648.658 233.448 648.638 237.781V240.531C648.638 245.073 649.408 248.49 650.95 250.781C652.513 253.052 654.96 254.188 658.294 254.188C661.148 254.188 663.273 253.552 664.669 252.281V245.219H657.044V237.688H675.638V256.375ZM701.535 262C701.16 261.312 700.827 260.302 700.535 258.969C698.598 261.406 695.889 262.625 692.41 262.625C689.223 262.625 686.514 261.667 684.285 259.75C682.056 257.812 680.941 255.385 680.941 252.469C680.941 248.802 682.295 246.031 685.004 244.156C687.712 242.281 691.65 241.344 696.816 241.344H700.066V239.562C700.066 236.458 698.723 234.906 696.035 234.906C693.535 234.906 692.285 236.135 692.285 238.594H681.754C681.754 235.323 683.139 232.667 685.91 230.625C688.702 228.583 692.254 227.562 696.566 227.562C700.879 227.562 704.285 228.615 706.785 230.719C709.285 232.823 710.566 235.708 710.629 239.375V254.344C710.67 257.448 711.15 259.823 712.066 261.469V262H701.535ZM694.941 255.125C696.254 255.125 697.337 254.844 698.191 254.281C699.066 253.719 699.691 253.083 700.066 252.375V246.969H697.004C693.337 246.969 691.504 248.615 691.504 251.906C691.504 252.865 691.827 253.646 692.473 254.25C693.118 254.833 693.941 255.125 694.941 255.125ZM735.151 252.5C735.151 251.604 734.682 250.885 733.745 250.344C732.807 249.802 731.026 249.24 728.401 248.656C725.776 248.073 723.61 247.312 721.901 246.375C720.193 245.417 718.891 244.26 717.995 242.906C717.099 241.552 716.651 240 716.651 238.25C716.651 235.146 717.932 232.594 720.495 230.594C723.057 228.573 726.412 227.562 730.557 227.562C735.016 227.562 738.599 228.573 741.307 230.594C744.016 232.615 745.37 235.271 745.37 238.562H734.807C734.807 235.854 733.38 234.5 730.526 234.5C729.422 234.5 728.495 234.812 727.745 235.438C726.995 236.042 726.62 236.802 726.62 237.719C726.62 238.656 727.078 239.417 727.995 240C728.912 240.583 730.37 241.062 732.37 241.438C734.391 241.812 736.162 242.26 737.682 242.781C742.766 244.531 745.307 247.667 745.307 252.188C745.307 255.271 743.932 257.781 741.182 259.719C738.453 261.656 734.912 262.625 730.557 262.625C727.662 262.625 725.078 262.104 722.807 261.062C720.537 260.021 718.766 258.604 717.495 256.812C716.224 255.021 715.589 253.135 715.589 251.156H725.432C725.474 252.719 725.995 253.865 726.995 254.594C727.995 255.302 729.276 255.656 730.839 255.656C732.276 255.656 733.349 255.365 734.057 254.781C734.787 254.198 735.151 253.438 735.151 252.5ZM763.486 219.781V228.188H769.049V235.5H763.486V250.969C763.486 252.24 763.715 253.125 764.174 253.625C764.632 254.125 765.538 254.375 766.893 254.375C767.934 254.375 768.809 254.312 769.518 254.188V261.719C767.622 262.323 765.643 262.625 763.58 262.625C759.955 262.625 757.278 261.771 755.549 260.062C753.82 258.354 752.955 255.76 752.955 252.281V235.5H748.643V228.188H752.955V219.781H763.486ZM771.915 244.781C771.915 241.406 772.571 238.406 773.884 235.781C775.196 233.135 777.082 231.104 779.54 229.688C781.998 228.271 784.884 227.562 788.196 227.562C793.259 227.562 797.248 229.135 800.165 232.281C803.082 235.406 804.54 239.667 804.54 245.062V245.438C804.54 250.708 803.071 254.896 800.134 258C797.217 261.083 793.259 262.625 788.259 262.625C783.446 262.625 779.582 261.188 776.665 258.312C773.748 255.417 772.175 251.5 771.946 246.562L771.915 244.781ZM782.446 245.438C782.446 248.562 782.936 250.854 783.915 252.312C784.894 253.771 786.342 254.5 788.259 254.5C792.009 254.5 793.925 251.615 794.009 245.844V244.781C794.009 238.719 792.071 235.688 788.196 235.688C784.675 235.688 782.769 238.302 782.478 243.531L782.446 245.438ZM827.844 252.5C827.844 251.604 827.375 250.885 826.438 250.344C825.5 249.802 823.719 249.24 821.094 248.656C818.469 248.073 816.302 247.312 814.594 246.375C812.885 245.417 811.583 244.26 810.688 242.906C809.792 241.552 809.344 240 809.344 238.25C809.344 235.146 810.625 232.594 813.188 230.594C815.75 228.573 819.104 227.562 823.25 227.562C827.708 227.562 831.292 228.573 834 230.594C836.708 232.615 838.062 235.271 838.062 238.562H827.5C827.5 235.854 826.073 234.5 823.219 234.5C822.115 234.5 821.188 234.812 820.438 235.438C819.688 236.042 819.312 236.802 819.312 237.719C819.312 238.656 819.771 239.417 820.688 240C821.604 240.583 823.062 241.062 825.062 241.438C827.083 241.812 828.854 242.26 830.375 242.781C835.458 244.531 838 247.667 838 252.188C838 255.271 836.625 257.781 833.875 259.719C831.146 261.656 827.604 262.625 823.25 262.625C820.354 262.625 817.771 262.104 815.5 261.062C813.229 260.021 811.458 258.604 810.188 256.812C808.917 255.021 808.281 253.135 808.281 251.156H818.125C818.167 252.719 818.688 253.865 819.688 254.594C820.688 255.302 821.969 255.656 823.531 255.656C824.969 255.656 826.042 255.365 826.75 254.781C827.479 254.198 827.844 253.438 827.844 252.5ZM469.136 315.344C469.136 320.594 467.949 324.792 465.574 327.938C463.22 331.062 460.032 332.625 456.011 332.625C452.907 332.625 450.355 331.49 448.355 329.219V345H437.824V298.188H447.668L447.98 301.312C450.001 298.812 452.657 297.562 455.949 297.562C460.115 297.562 463.355 299.104 465.668 302.188C467.98 305.25 469.136 309.469 469.136 314.844V315.344ZM458.605 314.688C458.605 308.688 456.855 305.688 453.355 305.688C450.855 305.688 449.188 306.583 448.355 308.375V321.688C449.272 323.562 450.959 324.5 453.418 324.5C456.772 324.5 458.501 321.604 458.605 315.812V314.688ZM473.44 314.781C473.44 311.406 474.096 308.406 475.409 305.781C476.721 303.135 478.607 301.104 481.065 299.688C483.523 298.271 486.409 297.562 489.721 297.562C494.784 297.562 498.773 299.135 501.69 302.281C504.607 305.406 506.065 309.667 506.065 315.062V315.438C506.065 320.708 504.596 324.896 501.659 328C498.742 331.083 494.784 332.625 489.784 332.625C484.971 332.625 481.107 331.188 478.19 328.312C475.273 325.417 473.7 321.5 473.471 316.562L473.44 314.781ZM483.971 315.438C483.971 318.562 484.461 320.854 485.44 322.312C486.419 323.771 487.867 324.5 489.784 324.5C493.534 324.5 495.45 321.615 495.534 315.844V314.781C495.534 308.719 493.596 305.688 489.721 305.688C486.2 305.688 484.294 308.302 484.003 313.531L483.971 315.438ZM532.119 307.719L528.65 307.469C525.338 307.469 523.213 308.51 522.275 310.594V332H511.744V298.188H521.619L521.963 302.531C523.733 299.219 526.202 297.562 529.369 297.562C530.494 297.562 531.473 297.688 532.306 297.938L532.119 307.719ZM591.07 316.594C590.924 319.76 590.07 322.562 588.508 325C586.945 327.417 584.747 329.292 581.914 330.625C579.101 331.958 575.883 332.625 572.258 332.625C566.278 332.625 561.57 330.677 558.133 326.781C554.695 322.885 552.976 317.385 552.976 310.281V308.031C552.976 303.573 553.747 299.677 555.289 296.344C556.851 292.99 559.091 290.406 562.008 288.594C564.924 286.76 568.299 285.844 572.133 285.844C577.653 285.844 582.091 287.302 585.445 290.219C588.799 293.115 590.705 297.115 591.164 302.219H580.226C580.143 299.448 579.445 297.458 578.133 296.25C576.82 295.042 574.82 294.438 572.133 294.438C569.403 294.438 567.403 295.458 566.133 297.5C564.862 299.542 564.195 302.802 564.133 307.281V310.5C564.133 315.354 564.737 318.823 565.945 320.906C567.174 322.99 569.278 324.031 572.258 324.031C574.778 324.031 576.705 323.438 578.039 322.25C579.372 321.062 580.08 319.177 580.164 316.594H591.07ZM615.78 332C615.405 331.312 615.072 330.302 614.78 328.969C612.843 331.406 610.134 332.625 606.655 332.625C603.468 332.625 600.759 331.667 598.53 329.75C596.301 327.812 595.186 325.385 595.186 322.469C595.186 318.802 596.54 316.031 599.249 314.156C601.957 312.281 605.895 311.344 611.061 311.344H614.311V309.562C614.311 306.458 612.968 304.906 610.28 304.906C607.78 304.906 606.53 306.135 606.53 308.594H595.999C595.999 305.323 597.384 302.667 600.155 300.625C602.947 298.583 606.499 297.562 610.811 297.562C615.124 297.562 618.53 298.615 621.03 300.719C623.53 302.823 624.811 305.708 624.874 309.375V324.344C624.915 327.448 625.395 329.823 626.311 331.469V332H615.78ZM609.186 325.125C610.499 325.125 611.582 324.844 612.436 324.281C613.311 323.719 613.936 323.083 614.311 322.375V316.969H611.249C607.582 316.969 605.749 318.615 605.749 321.906C605.749 322.865 606.072 323.646 606.718 324.25C607.363 324.833 608.186 325.125 609.186 325.125ZM643.959 289.781V298.188H649.521V305.5H643.959V320.969C643.959 322.24 644.188 323.125 644.646 323.625C645.105 324.125 646.011 324.375 647.365 324.375C648.407 324.375 649.282 324.312 649.99 324.188V331.719C648.094 332.323 646.115 332.625 644.053 332.625C640.428 332.625 637.75 331.771 636.021 330.062C634.292 328.354 633.428 325.76 633.428 322.281V305.5H629.115V298.188H633.428V289.781H643.959ZM671.013 332.625C665.825 332.625 661.627 331.083 658.419 328C655.21 324.896 653.606 320.865 653.606 315.906V315.031C653.606 311.573 654.242 308.521 655.513 305.875C656.804 303.229 658.679 301.188 661.138 299.75C663.596 298.292 666.513 297.562 669.888 297.562C674.638 297.562 678.388 299.042 681.138 302C683.888 304.938 685.263 309.042 685.263 314.312V318.406H664.325C664.7 320.302 665.523 321.792 666.794 322.875C668.065 323.958 669.71 324.5 671.731 324.5C675.065 324.5 677.669 323.333 679.544 321L684.356 326.688C683.044 328.5 681.179 329.948 678.763 331.031C676.367 332.094 673.783 332.625 671.013 332.625ZM669.825 305.688C666.742 305.688 664.908 307.729 664.325 311.812H674.95V311C674.992 309.312 674.565 308.01 673.669 307.094C672.773 306.156 671.492 305.688 669.825 305.688ZM689.254 314.844C689.254 311.427 689.816 308.406 690.941 305.781C692.066 303.156 693.681 301.135 695.785 299.719C697.889 298.281 700.337 297.562 703.129 297.562C706.65 297.562 709.4 298.75 711.379 301.125L711.754 298.188H721.316V330.719C721.316 333.698 720.618 336.281 719.223 338.469C717.848 340.677 715.848 342.365 713.223 343.531C710.598 344.719 707.556 345.312 704.098 345.312C701.618 345.312 699.212 344.844 696.879 343.906C694.566 342.969 692.795 341.75 691.566 340.25L695.973 334.062C697.931 336.375 700.514 337.531 703.723 337.531C708.389 337.531 710.723 335.135 710.723 330.344V329.281C708.702 331.51 706.15 332.625 703.066 332.625C698.941 332.625 695.608 331.052 693.066 327.906C690.525 324.74 689.254 320.51 689.254 315.219V314.844ZM699.816 315.5C699.816 318.271 700.337 320.469 701.379 322.094C702.42 323.698 703.879 324.5 705.754 324.5C708.025 324.5 709.681 323.74 710.723 322.219V308C709.702 306.458 708.066 305.688 705.816 305.688C703.941 305.688 702.473 306.531 701.41 308.219C700.348 309.885 699.816 312.312 699.816 315.5ZM726.933 314.781C726.933 311.406 727.589 308.406 728.901 305.781C730.214 303.135 732.099 301.104 734.558 299.688C737.016 298.271 739.901 297.562 743.214 297.562C748.276 297.562 752.266 299.135 755.183 302.281C758.099 305.406 759.558 309.667 759.558 315.062V315.438C759.558 320.708 758.089 324.896 755.151 328C752.235 331.083 748.276 332.625 743.276 332.625C738.464 332.625 734.599 331.188 731.683 328.312C728.766 325.417 727.193 321.5 726.964 316.562L726.933 314.781ZM737.464 315.438C737.464 318.562 737.953 320.854 738.933 322.312C739.912 323.771 741.36 324.5 743.276 324.5C747.026 324.5 748.943 321.615 749.026 315.844V314.781C749.026 308.719 747.089 305.688 743.214 305.688C739.693 305.688 737.787 308.302 737.495 313.531L737.464 315.438ZM785.611 307.719L782.143 307.469C778.83 307.469 776.705 308.51 775.768 310.594V332H765.236V298.188H775.111L775.455 302.531C777.226 299.219 779.695 297.562 782.861 297.562C783.986 297.562 784.965 297.688 785.799 297.938L785.611 307.719ZM801.478 332H790.915V298.188H801.478V332ZM790.29 289.469C790.29 287.969 790.832 286.74 791.915 285.781C792.998 284.823 794.405 284.344 796.134 284.344C797.863 284.344 799.269 284.823 800.353 285.781C801.436 286.74 801.978 287.969 801.978 289.469C801.978 290.969 801.436 292.198 800.353 293.156C799.269 294.115 797.863 294.594 796.134 294.594C794.405 294.594 792.998 294.115 791.915 293.156C790.832 292.198 790.29 290.969 790.29 289.469ZM828 332C827.625 331.312 827.292 330.302 827 328.969C825.062 331.406 822.354 332.625 818.875 332.625C815.688 332.625 812.979 331.667 810.75 329.75C808.521 327.812 807.406 325.385 807.406 322.469C807.406 318.802 808.76 316.031 811.469 314.156C814.177 312.281 818.115 311.344 823.281 311.344H826.531V309.562C826.531 306.458 825.188 304.906 822.5 304.906C820 304.906 818.75 306.135 818.75 308.594H808.219C808.219 305.323 809.604 302.667 812.375 300.625C815.167 298.583 818.719 297.562 823.031 297.562C827.344 297.562 830.75 298.615 833.25 300.719C835.75 302.823 837.031 305.708 837.094 309.375V324.344C837.135 327.448 837.615 329.823 838.531 331.469V332H828ZM821.406 325.125C822.719 325.125 823.802 324.844 824.656 324.281C825.531 323.719 826.156 323.083 826.531 322.375V316.969H823.469C819.802 316.969 817.969 318.615 817.969 321.906C817.969 322.865 818.292 323.646 818.938 324.25C819.583 324.833 820.406 325.125 821.406 325.125Z" fill="#212121"/>
<rect x="72" y="140" width="53" height="53" fill="#FFC700"/>
<rect x="140" y="140" width="53" height="53" fill="#FFC700"/>
<rect x="208" y="140" width="53" height="53" fill="#FFC700"/>
<rect x="72" y="210" width="53" height="53" fill="#FFC700"/>
<rect x="140" y="210" width="53" height="53" fill="#FFC700"/>
<rect x="208" y="210" width="53" height="53" fill="#FFC700"/>
<rect x="72" y="280" width="53" height="53" fill="#FFC700"/>
<rect x="140" y="280" width="53" height="53" fill="#FFC700"/>
<rect x="208" y="280" width="53" height="53" fill="#FFC700"/>
<path d="M327.5 236C327.5 313.347 256.715 377.5 167.5 377.5C78.2851 377.5 7.5 313.347 7.5 236C7.5 158.653 78.2851 94.5 167.5 94.5C256.715 94.5 327.5 158.653 327.5 236Z" stroke="#FFC700" stroke-width="15"/>
</g>
<defs>
<linearGradient id="paint0_linear" x1="163.112" y1="-60" x2="163.112" y2="540" gradientUnits="userSpaceOnUse">
<stop stop-color="#495DFF"/>
<stop offset="1" stop-color="#FE6955"/>
</linearGradient>
<linearGradient id="paint1_linear" x1="164.26" y1="-10" x2="164.26" y2="490" gradientUnits="userSpaceOnUse">
<stop stop-color="#495DFF"/>
<stop offset="1" stop-color="#FE6955"/>
</linearGradient>
<linearGradient id="paint2_linear" x1="166.408" y1="41" x2="166.408" y2="441" gradientUnits="userSpaceOnUse">
<stop stop-color="#495DFF"/>
<stop offset="1" stop-color="#FE6955"/>
</linearGradient>
<clipPath id="clip0">
<rect width="960" height="480" fill="white"/>
</clipPath>
</defs>
</svg>
